<?xml version="1.0" standalone="no"?>
<!DOCTYPE svg PUBLIC "-//W3C//DTD SVG 20010904//EN"
 "http://www.w3.org/TR/2001/REC-SVG-20010904/DTD/svg10.dtd">
<svg version="1.0" xmlns="http://www.w3.org/2000/svg"
 width="2147.000000pt" height="623.000000pt" viewBox="0 0 2147.000000 623.000000"
 preserveAspectRatio="xMidYMid meet">

<g transform="translate(0.000000,623.000000) scale(0.100000,-0.100000)"
fill="#000000" stroke="none">
<path d="M6900 6224 c-309 -59 -553 -215 -715 -458 -271 -407 -272 -1019 -2
-1421 222 -331 603 -507 1010 -465 260 26 462 117 636 284 72 70 161 183 161
205 0 11 -48 47 -53 40 -2 -2 -15 -22 -29 -45 -38 -59 -132 -158 -200 -210
-282 -218 -705 -267 -1025 -119 -277 128 -478 382 -559 709 -48 191 -44 450 8
651 166 633 827 946 1392 659 122 -62 258 -175 333 -276 36 -49 37 -50 82 -19
20 13 -35 85 -141 187 -97 92 -167 141 -283 195 -143 67 -215 82 -415 85 -96
1 -186 0 -200 -2z"/>
<path d="M17910 6211 c-431 -92 -737 -418 -837 -891 -25 -119 -25 -411 0 -529
105 -491 412 -810 866 -898 114 -22 328 -21 436 2 383 81 674 336 803 705 56
160 67 235 67 455 0 220 -11 295 -67 455 -129 371 -431 633 -811 705 -112 21
-347 19 -457 -4z m483 -80 c351 -92 617 -372 713 -748 85 -338 32 -720 -138
-981 -156 -238 -358 -378 -628 -434 -124 -26 -316 -21 -435 12 -174 47 -319
134 -445 266 -203 213 -300 475 -300 810 0 326 100 598 294 803 157 164 322
250 566 295 63 12 297 -3 373 -23z"/>
<path d="M0 6158 c0 -7 159 -508 354 -1113 l353 -1100 54 -3 55 -3 304 948
c167 521 317 990 333 1041 18 54 33 88 37 80 4 -7 155 -476 336 -1041 l329
-1028 54 3 54 3 309 960 c169 528 330 1029 357 1113 l49 152 -47 0 -46 0 -279
-873 c-154 -479 -304 -948 -334 -1042 l-55 -170 -27 80 c-15 44 -166 513 -335
1043 l-309 962 -53 0 -52 0 -66 -202 c-36 -112 -185 -578 -332 -1035 -147
-458 -269 -833 -273 -833 -3 0 -155 465 -337 1033 l-331 1032 -51 3 c-37 2
-51 -1 -51 -10z"/>
<path d="M3460 5055 l0 -1115 750 0 750 0 0 35 0 35 -700 0 -700 0 0 520 0
520 484 0 c267 0 487 3 489 8 2 4 7 19 11 35 l6 27 -495 0 -495 0 0 490 0 490
662 2 662 3 7 33 6 32 -718 0 -719 0 0 -1115z"/>
<path d="M9156 6162 c-12 -20 -946 -2204 -946 -2213 0 -5 19 -9 43 -9 l43 0
133 315 134 315 616 0 616 0 134 -315 134 -315 58 0 c41 0 59 4 58 13 0 6
-213 507 -472 1112 l-473 1100 -36 3 c-20 2 -39 -1 -42 -6z m314 -840 c155
-365 280 -665 278 -668 -3 -2 -261 -3 -574 -2 l-570 3 286 672 c157 369 288
668 292 665 3 -4 133 -305 288 -670z"/>
<path d="M10670 5056 l0 -1116 50 0 50 0 0 445 0 445 408 0 408 0 310 -445
309 -445 63 0 c34 0 62 1 62 3 0 2 -144 208 -319 457 l-319 455 73 26 c105 37
180 84 262 165 118 118 173 260 173 449 0 322 -182 554 -506 647 -76 21 -98
22 -551 26 l-473 3 0 -1115z m973 1016 c228 -63 388 -220 438 -432 18 -76 15
-221 -5 -300 -41 -154 -156 -294 -296 -362 -143 -69 -159 -71 -607 -75 l-403
-4 0 601 0 602 398 -4 c368 -4 403 -6 475 -26z"/>
<path d="M12810 5055 l0 -1115 750 0 750 0 0 35 0 35 -695 0 -695 0 0 520 0
520 485 0 c381 0 485 3 485 13 0 6 3 22 6 35 l6 22 -491 0 -491 0 0 490 0 490
660 0 c521 0 660 3 660 13 0 6 3 22 6 35 l6 22 -721 0 -721 0 0 -1115z"/>
<path d="M15490 5055 l0 -1115 55 0 55 0 0 525 0 525 499 0 499 0 11 31 c6 18
11 34 11 35 0 2 -229 4 -510 4 l-510 0 0 520 0 520 644 0 644 0 6 23 c3 12 6
28 6 35 0 9 -148 12 -705 12 l-705 0 0 -1115z"/>
<path d="M19810 5056 l0 -1116 55 0 55 0 0 445 0 445 408 0 407 -1 309 -444
309 -445 58 0 c33 0 59 4 59 8 0 5 -142 210 -315 457 l-315 448 83 32 c288
109 442 348 424 657 -11 174 -66 298 -186 418 -87 87 -169 134 -306 177 l-90
27 -477 4 -478 3 0 -1115z m983 1016 c171 -47 307 -151 379 -288 47 -90 68
-176 68 -284 0 -232 -114 -422 -312 -519 -150 -74 -155 -74 -605 -79 l-403 -3
0 601 0 602 398 -4 c368 -4 403 -6 475 -26z"/>
<path d="M6024 3480 c-348 -37 -719 -201 -1005 -445 -226 -193 -440 -513 -527
-785 -100 -315 -106 -675 -17 -984 164 -565 630 -1029 1205 -1199 187 -56 238
-62 500 -62 216 0 257 3 343 22 357 81 661 253 917 520 363 377 537 857 491
1353 -13 145 -40 285 -76 396 -38 115 -155 344 -233 454 -86 121 -280 316
-402 403 -108 76 -333 192 -461 236 -233 80 -511 114 -735 91z m406 -90 c437
-94 652 -395 712 -995 18 -180 18 -1048 0 -1245 -42 -464 -149 -730 -359 -900
-151 -122 -347 -180 -608 -180 -267 0 -493 68 -625 187 -183 166 -284 428
-337 878 -22 192 -26 942 -5 1155 27 280 66 453 137 619 119 278 334 443 641
491 78 12 374 6 444 -10z"/>
<path d="M20110 3483 c-137 -11 -318 -62 -445 -125 -150 -75 -314 -211 -401
-334 -58 -81 -119 -211 -145 -309 -25 -93 -30 -293 -10 -410 46 -267 216 -491
481 -633 138 -74 321 -140 700 -251 280 -82 394 -130 516 -217 168 -119 244
-293 215 -490 -52 -352 -301 -590 -664 -635 -140 -17 -370 -7 -465 20 -284 82
-540 330 -683 661 -43 100 -83 229 -94 303 l-7 47 -44 0 -44 0 0 -525 0 -525
44 0 c39 0 45 3 56 29 34 83 96 95 260 51 414 -111 577 -140 795 -140 194 0
308 16 455 62 412 131 705 425 808 807 22 85 25 115 25 266 0 141 -3 183 -21
247 -38 141 -111 257 -233 373 -175 166 -339 241 -947 435 -416 133 -542 194
-670 321 -91 91 -125 165 -130 285 -7 162 48 287 181 411 77 72 210 143 327
174 105 28 308 36 420 16 215 -37 380 -150 507 -344 63 -96 104 -186 183 -400
l52 -143 34 0 34 0 0 450 0 450 -44 0 c-39 0 -45 -3 -56 -29 -34 -83 -103 -87
-290 -16 -270 102 -471 136 -700 118z"/>
<path d="M9225 3419 c-148 -3 -422 -7 -607 -8 l-338 -1 0 -35 0 -35 215 0 215
0 0 -1600 0 -1600 -215 0 -215 0 0 -38 0 -39 798 -7 c834 -7 935 -4 1170 35
391 65 751 225 998 444 88 78 207 222 268 326 103 173 180 401 205 604 16 134
14 448 -4 574 -81 552 -405 962 -937 1185 -280 117 -550 175 -923 196 -179 10
-203 10 -630 -1z m795 -93 c194 -34 359 -100 492 -198 196 -144 323 -370 387
-685 67 -328 79 -938 25 -1255 -91 -531 -337 -850 -764 -992 -172 -57 -403
-83 -624 -71 l-136 7 0 1603 0 1604 38 4 c86 11 489 -1 582 -17z"/>
<path d="M30 3375 l0 -35 215 0 215 0 0 -1600 0 -1600 -215 0 -215 0 0 -40 0
-40 475 0 475 0 0 40 0 40 -220 0 -220 0 1 1598 c0 1299 3 1591 13 1567 7 -16
269 -753 581 -1638 l569 -1607 42 0 c37 0 43 3 52 28 5 15 260 736 565 1602
306 866 560 1586 566 1600 7 17 10 -480 10 -1562 l1 -1588 -210 0 -210 0 0
-40 0 -40 775 0 775 0 0 40 0 40 -220 0 -220 0 0 1600 0 1600 220 0 220 0 0
35 0 35 -594 0 -593 0 -16 -42 c-9 -24 -194 -547 -412 -1162 -217 -616 -396
-1121 -398 -1122 -2 -2 -185 521 -407 1161 l-405 1165 -607 0 -608 0 0 -35z"/>
<path d="M12120 3375 l0 -35 220 0 220 0 0 -1600 0 -1600 -220 0 -220 0 0 -40
0 -40 1505 0 1505 0 0 520 0 520 -34 0 c-33 0 -34 -2 -46 -52 -7 -29 -28 -96
-47 -148 -142 -384 -376 -623 -710 -727 l-88 -27 -477 -4 -478 -3 0 840 0 841
193 0 c295 0 389 -30 523 -164 88 -88 150 -207 204 -393 l37 -128 37 -3 36 -3
0 735 0 736 -35 0 c-32 0 -35 -3 -45 -42 -73 -280 -134 -406 -253 -514 -120
-110 -240 -144 -511 -144 l-186 0 0 721 0 721 438 -5 c495 -5 512 -7 667 -83
221 -108 387 -303 485 -573 27 -74 29 -76 64 -79 l36 -3 0 405 0 406 -1410 0
-1410 0 0 -35z"/>
<path d="M15550 3375 l0 -35 220 0 220 0 0 -1600 0 -1600 -220 0 -220 0 0 -40
0 -40 1495 0 1495 0 0 535 0 535 -35 0 c-32 0 -35 -3 -45 -42 -25 -101 -84
-266 -122 -342 -135 -272 -343 -474 -567 -552 -144 -50 -190 -54 -657 -54
l-434 0 0 1600 0 1600 215 0 215 0 0 35 0 35 -780 0 -780 0 0 -35z"/>
</g>
</svg>
