<?xml version="1.0" standalone="no"?>
<!DOCTYPE svg PUBLIC "-//W3C//DTD SVG 20010904//EN"
 "http://www.w3.org/TR/2001/REC-SVG-20010904/DTD/svg10.dtd">
<svg version="1.0" xmlns="http://www.w3.org/2000/svg"
 width="32.000000pt" height="30.000000pt" viewBox="0 0 32.000000 30.000000"
 preserveAspectRatio="xMidYMid meet">

<g transform="translate(0.000000,30.000000) scale(0.100000,-0.100000)"
fill="#d98b74" stroke="none">
<path d="M109 255 c35 -41 39 -74 15 -135 -16 -40 -52 -73 -89 -83 -18 -4 -18
-5 3 -6 32 -1 96 33 121 65 14 18 21 41 21 72 0 40 -5 50 -40 84 -51 48 -73
50 -31 3z"/>
<path d="M213 259 c73 -43 49 -181 -40 -228 -46 -24 -40 -26 18 -6 81 29 122
92 105 161 -8 32 -61 84 -85 84 -14 -1 -14 -2 2 -11z"/>
</g>
</svg>
