<?xml version="1.0" standalone="no"?>
<!DOCTYPE svg PUBLIC "-//W3C//DTD SVG 20010904//EN"
 "http://www.w3.org/TR/2001/REC-SVG-20010904/DTD/svg10.dtd">
<svg version="1.0" xmlns="http://www.w3.org/2000/svg"
 width="32.000000pt" height="30.000000pt" viewBox="0 0 32.000000 30.000000"
 preserveAspectRatio="xMidYMid meet">

<g transform="translate(0.000000,30.000000) scale(0.100000,-0.100000)"
fill="#d98b74" stroke="none">
<path d="M129 274 c-67 -20 -109 -71 -109 -131 0 -39 5 -50 39 -84 48 -49 74
-51 32 -4 -21 24 -31 46 -31 68 0 49 39 119 78 139 31 15 52 29 41 27 -2 0
-25 -7 -50 -15z"/>
<path d="M224 251 c-57 -26 -84 -64 -84 -118 0 -50 21 -88 61 -109 40 -20 41
-18 8 15 -35 36 -38 85 -9 149 15 33 29 47 62 62 26 12 35 20 23 20 -11 0 -38
-9 -61 -19z"/>
</g>
</svg>
